<svg width="19" height="19" viewBox="0 0 19 19" fill="none" xmlns="http://www.w3.org/2000/svg">
<path d="M14.7073 10.2932C14.6145 10.2003 14.5043 10.1265 14.383 10.0762C14.2617 10.0259 14.1317 10 14.0003 10C13.869 10 13.739 10.0259 13.6176 10.0762C13.4963 10.1265 13.3861 10.2003 13.2933 10.2932L11.6993 11.8872C10.9603 11.6672 9.58133 11.1672 8.70733 10.2932C7.83333 9.4192 7.33333 8.0402 7.11333 7.3012L8.70733 5.7072C8.80028 5.61441 8.87402 5.50421 8.92433 5.38289C8.97464 5.26158 9.00054 5.13153 9.00054 5.0002C9.00054 4.86887 8.97464 4.73882 8.92433 4.61751C8.87402 4.49619 8.80028 4.38599 8.70733 4.2932L4.70733 0.293201C4.61455 0.200255 4.50434 0.126518 4.38303 0.0762068C4.26171 0.0258961 4.13167 0 4.00033 0C3.869 0 3.73896 0.0258961 3.61764 0.0762068C3.49633 0.126518 3.38612 0.200255 3.29333 0.293201L0.581334 3.0052C0.201334 3.3852 -0.0126663 3.9072 -0.00466627 4.4402C0.0183337 5.8642 0.395334 10.8102 4.29333 14.7082C8.19133 18.6062 13.1373 18.9822 14.5623 19.0062H14.5903C15.1183 19.0062 15.6173 18.7982 15.9953 18.4202L18.7073 15.7082C18.8003 15.6154 18.874 15.5052 18.9243 15.3839C18.9746 15.2626 19.0005 15.1325 19.0005 15.0012C19.0005 14.8699 18.9746 14.7398 18.9243 14.6185C18.874 14.4972 18.8003 14.387 18.7073 14.2942L14.7073 10.2932ZM14.5803 17.0052C13.3323 16.9842 9.06233 16.6492 5.70733 13.2932C2.34133 9.9272 2.01533 5.6422 1.99533 4.4192L4.00033 2.4142L6.58633 5.0002L5.29333 6.2932C5.1758 6.41065 5.08938 6.55554 5.04189 6.71477C4.9944 6.874 4.98733 7.04256 5.02133 7.2052C5.04533 7.3202 5.63233 10.0472 7.29233 11.7072C8.95233 13.3672 11.6793 13.9542 11.7943 13.9782C11.9569 14.0132 12.1256 14.0067 12.285 13.9593C12.4444 13.9119 12.5893 13.8252 12.7063 13.7072L14.0003 12.4142L16.5863 15.0002L14.5803 17.0052Z" fill="black"/>
</svg>
