<svg width="20" height="20" viewBox="0 0 20 20" fill="none" xmlns="http://www.w3.org/2000/svg">
<path d="M9.07088 1.41337C9.41462 0.59691 10.5854 0.596911 10.9291 1.41337L12.9579 6.23226C13.1029 6.57646 13.4306 6.81164 13.8067 6.84143L19.0727 7.2585C19.9649 7.32917 20.3267 8.42916 19.6469 9.00443L15.6348 12.3997C15.3482 12.6422 15.223 13.0228 15.3106 13.3854L16.5363 18.462C16.744 19.3221 15.7969 20.002 15.033 19.5411L10.5245 16.8206C10.2025 16.6262 9.7975 16.6262 9.47548 16.8206L4.96699 19.5411C4.20311 20.002 3.25596 19.3221 3.46363 18.462L4.68942 13.3854C4.77698 13.0228 4.65182 12.6422 4.36526 12.3997L0.353062 9.00443C-0.326718 8.42916 0.0350679 7.32917 0.927291 7.2585L6.19336 6.84143C6.5695 6.81164 6.89716 6.57646 7.04207 6.23226L9.07088 1.41337Z" fill="black"/>
</svg>
