<svg width="20" height="18" viewBox="0 0 20 18" fill="none" xmlns="http://www.w3.org/2000/svg">
<path d="M2.10334 8.21392C2.10334 8.21392 10.0644 4.95665 12.8255 3.80976C13.8838 3.35101 17.4733 1.88291 17.4733 1.88291C17.4733 1.88291 19.1299 1.24075 18.9918 2.80042C18.9457 3.44271 18.5776 5.69064 18.2094 8.1221C17.6573 11.5629 17.059 15.3246 17.059 15.3246C17.059 15.3246 16.9671 16.3798 16.1848 16.5634C15.4024 16.7469 14.114 15.9211 13.8838 15.7375C13.6998 15.5999 10.4326 13.5355 9.2362 12.5263C8.91402 12.251 8.54588 11.7004 9.28217 11.0582C10.9388 9.54434 12.9176 7.66334 14.114 6.4706C14.6661 5.92002 15.2184 4.63545 12.9176 6.19525C9.65032 8.44318 6.42905 10.5536 6.42905 10.5536C6.42905 10.5536 5.69288 11.0123 4.31235 10.5994C2.93183 10.1865 1.32119 9.63604 1.32119 9.63604C1.32119 9.63604 0.216868 8.94779 2.10358 8.21392H2.10334Z" stroke="black" stroke-width="1.65"/>
</svg>
