<svg width="24" height="25" viewBox="0 0 24 25" fill="none" xmlns="http://www.w3.org/2000/svg">
<path d="M21.5931 7.37391C21.4792 6.95131 21.2566 6.56591 20.9475 6.25607C20.6383 5.94624 20.2534 5.72277 19.8311 5.60791C18.2651 5.17791 12.0001 5.17091 12.0001 5.17091C12.0001 5.17091 5.73609 5.16391 4.16909 5.57491C3.74701 5.69505 3.36291 5.92168 3.05365 6.23304C2.7444 6.5444 2.52037 6.93003 2.40309 7.35291C1.99009 8.91891 1.98609 12.1669 1.98609 12.1669C1.98609 12.1669 1.98209 15.4309 2.39209 16.9809C2.62209 17.8379 3.29709 18.5149 4.15509 18.7459C5.73709 19.1759 11.9851 19.1829 11.9851 19.1829C11.9851 19.1829 18.2501 19.1899 19.8161 18.7799C20.2386 18.6652 20.6238 18.4423 20.9337 18.1331C21.2436 17.8239 21.4675 17.4391 21.5831 17.0169C21.9971 15.4519 22.0001 12.2049 22.0001 12.2049C22.0001 12.2049 22.0201 8.93991 21.5931 7.37391ZM9.99609 15.1759L10.0011 9.17591L15.2081 12.1809L9.99609 15.1759Z" fill="black"/>
</svg>
